<svg height="512" viewBox="0 0 128 128" width="512" xmlns="http://www.w3.org/2000/svg"><g fill="#4a5568"><path d="m6.5 43.635a1.75 1.75 0 0 1 -1.75-1.75v-17.693a1.75 1.75 0 0 1 1.75-1.75h17.692a1.75 1.75 0 0 1 0 3.5h-15.942v15.943a1.75 1.75 0 0 1 -1.75 1.75z"/><path d="m121.5 43.635a1.75 1.75 0 0 1 -1.75-1.75v-15.943h-15.942a1.75 1.75 0 0 1 0-3.5h17.692a1.75 1.75 0 0 1 1.75 1.75v17.693a1.75 1.75 0 0 1 -1.75 1.75z"/><path d="m24.192 105.558h-17.692a1.75 1.75 0 0 1 -1.75-1.75v-17.693a1.75 1.75 0 0 1 3.5 0v15.943h15.942a1.75 1.75 0 0 1 0 3.5z"/><path d="m121.5 105.558h-17.692a1.75 1.75 0 0 1 0-3.5h15.942v-15.943a1.75 1.75 0 0 1 3.5 0v17.693a1.75 1.75 0 0 1 -1.75 1.75z"/><g><path d="m14.5 34.875h6v58.25h-6z"/><path d="m41.5 34.875h6v51.24h-6z"/><path d="m53.5 34.875h6v51.24h-6z"/><path d="m65.5 34.875h6v51.24h-6z"/><path d="m107.5 34.875h6v58.25h-6z"/><path d="m26.5 34.875h9v51.24h-9z"/><path d="m77.5 34.875h9v51.24h-9z"/><path d="m92.5 34.875h9v51.24h-9z"/></g></g></svg>